<svg xmlns="http://www.w3.org/2000/svg" width="24" height="24" viewBox="0 0 24 24" fill="none" stroke="#22c55e" stroke-width="2" stroke-linecap="round" stroke-linejoin="round">
  <path d="M8 16.001c-1.574.002-2.997.241-4.01.605C2.748 17.04 2 18.091 2.998 18.997c.999.905 5.251-1.062 6.379-2.626.349-1.157.038-1.701-1.377-1.737"/>
  <path d="M16 15.999c1.574.002 2.997.241 4.01.605 1.242.434 1.99 1.485.992 2.391-.999.905-5.251-1.062-6.379-2.626-.349-1.157-.038-1.701 1.377-1.737m.164-8.261L9.836 11.48"/>
  <circle cx="6" cy="9" r="3"/>
  <circle cx="18" cy="9" r="3"/>
</svg>